<svg width="376" height="194" viewBox="0 0 376 194" fill="none" xmlns="http://www.w3.org/2000/svg">
<g clip-path="url(#clip0_2010_1017)">
<rect width="376" height="194" rx="30" fill="url(#paint0_linear_2010_1017)"/>
<path d="M2.352 205V137.8H33.648C41.456 137.8 47.536 139.304 51.888 142.312C56.24 145.32 58.416 149.608 58.416 155.176C58.416 160.68 56.368 164.968 52.272 168.04C48.176 171.048 42.736 172.552 35.952 172.552L37.776 168.52C45.328 168.52 51.184 170.024 55.344 173.032C59.504 176.04 61.584 180.392 61.584 186.088C61.584 191.976 59.344 196.616 54.864 200.008C50.448 203.336 43.984 205 35.472 205H2.352ZM17.808 193.48H34.896C38.48 193.48 41.2 192.776 43.056 191.368C44.912 189.96 45.84 187.784 45.84 184.84C45.84 182.024 44.912 179.944 43.056 178.6C41.2 177.192 38.48 176.488 34.896 176.488H17.808V193.48ZM17.808 165.64H32.304C35.696 165.64 38.256 164.968 39.984 163.624C41.712 162.216 42.576 160.168 42.576 157.48C42.576 154.792 41.712 152.776 39.984 151.432C38.256 150.024 35.696 149.32 32.304 149.32H17.808V165.64ZM86.4818 205V146.92L90.0338 150.472H65.0738V137.8H123.346V150.472H98.3858L101.842 146.92V205H86.4818Z" fill="white" fill-opacity="0.03"/>
<path d="M132.352 205V137.8H163.648C171.456 137.8 177.536 139.304 181.888 142.312C186.24 145.32 188.416 149.608 188.416 155.176C188.416 160.68 186.368 164.968 182.272 168.04C178.176 171.048 172.736 172.552 165.952 172.552L167.776 168.52C175.328 168.52 181.184 170.024 185.344 173.032C189.504 176.04 191.584 180.392 191.584 186.088C191.584 191.976 189.344 196.616 184.864 200.008C180.448 203.336 173.984 205 165.472 205H132.352ZM147.808 193.48H164.896C168.48 193.48 171.2 192.776 173.056 191.368C174.912 189.96 175.84 187.784 175.84 184.84C175.84 182.024 174.912 179.944 173.056 178.6C171.2 177.192 168.48 176.488 164.896 176.488H147.808V193.48ZM147.808 165.64H162.304C165.696 165.64 168.256 164.968 169.984 163.624C171.712 162.216 172.576 160.168 172.576 157.48C172.576 154.792 171.712 152.776 169.984 151.432C168.256 150.024 165.696 149.32 162.304 149.32H147.808V165.64ZM216.482 205V146.92L220.034 150.472H195.074V137.8H253.346V150.472H228.386L231.842 146.92V205H216.482Z" fill="white" fill-opacity="0.03"/>
<path d="M259.352 205V137.8H290.648C298.456 137.8 304.536 139.304 308.888 142.312C313.24 145.32 315.416 149.608 315.416 155.176C315.416 160.68 313.368 164.968 309.272 168.04C305.176 171.048 299.736 172.552 292.952 172.552L294.776 168.52C302.328 168.52 308.184 170.024 312.344 173.032C316.504 176.04 318.584 180.392 318.584 186.088C318.584 191.976 316.344 196.616 311.864 200.008C307.448 203.336 300.984 205 292.472 205H259.352ZM274.808 193.48H291.896C295.48 193.48 298.2 192.776 300.056 191.368C301.912 189.96 302.84 187.784 302.84 184.84C302.84 182.024 301.912 179.944 300.056 178.6C298.2 177.192 295.48 176.488 291.896 176.488H274.808V193.48ZM274.808 165.64H289.304C292.696 165.64 295.256 164.968 296.984 163.624C298.712 162.216 299.576 160.168 299.576 157.48C299.576 154.792 298.712 152.776 296.984 151.432C295.256 150.024 292.696 149.32 289.304 149.32H274.808V165.64ZM343.482 205V146.92L347.034 150.472H322.074V137.8H380.346V150.472H355.386L358.842 146.92V205H343.482Z" fill="white" fill-opacity="0.03"/>
<path d="M259.352 205V137.8H290.648C298.456 137.8 304.536 139.304 308.888 142.312C313.24 145.32 315.416 149.608 315.416 155.176C315.416 160.68 313.368 164.968 309.272 168.04C305.176 171.048 299.736 172.552 292.952 172.552L294.776 168.52C302.328 168.52 308.184 170.024 312.344 173.032C316.504 176.04 318.584 180.392 318.584 186.088C318.584 191.976 316.344 196.616 311.864 200.008C307.448 203.336 300.984 205 292.472 205H259.352ZM274.808 193.48H291.896C295.48 193.48 298.2 192.776 300.056 191.368C301.912 189.96 302.84 187.784 302.84 184.84C302.84 182.024 301.912 179.944 300.056 178.6C298.2 177.192 295.48 176.488 291.896 176.488H274.808V193.48ZM274.808 165.64H289.304C292.696 165.64 295.256 164.968 296.984 163.624C298.712 162.216 299.576 160.168 299.576 157.48C299.576 154.792 298.712 152.776 296.984 151.432C295.256 150.024 292.696 149.32 289.304 149.32H274.808V165.64ZM343.482 205V146.92L347.034 150.472H322.074V137.8H380.346V150.472H355.386L358.842 146.92V205H343.482Z" fill="white" fill-opacity="0.03"/>
<path d="M3.352 130V62.8H34.648C42.456 62.8 48.536 64.304 52.888 67.312C57.24 70.32 59.416 74.608 59.416 80.176C59.416 85.68 57.368 89.968 53.272 93.04C49.176 96.048 43.736 97.552 36.952 97.552L38.776 93.52C46.328 93.52 52.184 95.024 56.344 98.032C60.504 101.04 62.584 105.392 62.584 111.088C62.584 116.976 60.344 121.616 55.864 125.008C51.448 128.336 44.984 130 36.472 130H3.352ZM18.808 118.48H35.896C39.48 118.48 42.2 117.776 44.056 116.368C45.912 114.96 46.84 112.784 46.84 109.84C46.84 107.024 45.912 104.944 44.056 103.6C42.2 102.192 39.48 101.488 35.896 101.488H18.808V118.48ZM18.808 90.64H33.304C36.696 90.64 39.256 89.968 40.984 88.624C42.712 87.216 43.576 85.168 43.576 82.48C43.576 79.792 42.712 77.776 40.984 76.432C39.256 75.024 36.696 74.32 33.304 74.32H18.808V90.64ZM87.4818 130V71.92L91.0338 75.472H66.0738V62.8H124.346V75.472H99.3858L102.842 71.92V130H87.4818Z" fill="white" fill-opacity="0.03"/>
<path d="M133.352 130V62.8H164.648C172.456 62.8 178.536 64.304 182.888 67.312C187.24 70.32 189.416 74.608 189.416 80.176C189.416 85.68 187.368 89.968 183.272 93.04C179.176 96.048 173.736 97.552 166.952 97.552L168.776 93.52C176.328 93.52 182.184 95.024 186.344 98.032C190.504 101.04 192.584 105.392 192.584 111.088C192.584 116.976 190.344 121.616 185.864 125.008C181.448 128.336 174.984 130 166.472 130H133.352ZM148.808 118.48H165.896C169.48 118.48 172.2 117.776 174.056 116.368C175.912 114.96 176.84 112.784 176.84 109.84C176.84 107.024 175.912 104.944 174.056 103.6C172.2 102.192 169.48 101.488 165.896 101.488H148.808V118.48ZM148.808 90.64H163.304C166.696 90.64 169.256 89.968 170.984 88.624C172.712 87.216 173.576 85.168 173.576 82.48C173.576 79.792 172.712 77.776 170.984 76.432C169.256 75.024 166.696 74.32 163.304 74.32H148.808V90.64ZM217.482 130V71.92L221.034 75.472H196.074V62.8H254.346V75.472H229.386L232.842 71.92V130H217.482Z" fill="white" fill-opacity="0.03"/>
<path d="M260.352 130V62.8H291.648C299.456 62.8 305.536 64.304 309.888 67.312C314.24 70.32 316.416 74.608 316.416 80.176C316.416 85.68 314.368 89.968 310.272 93.04C306.176 96.048 300.736 97.552 293.952 97.552L295.776 93.52C303.328 93.52 309.184 95.024 313.344 98.032C317.504 101.04 319.584 105.392 319.584 111.088C319.584 116.976 317.344 121.616 312.864 125.008C308.448 128.336 301.984 130 293.472 130H260.352ZM275.808 118.48H292.896C296.48 118.48 299.2 117.776 301.056 116.368C302.912 114.96 303.84 112.784 303.84 109.84C303.84 107.024 302.912 104.944 301.056 103.6C299.2 102.192 296.48 101.488 292.896 101.488H275.808V118.48ZM275.808 90.64H290.304C293.696 90.64 296.256 89.968 297.984 88.624C299.712 87.216 300.576 85.168 300.576 82.48C300.576 79.792 299.712 77.776 297.984 76.432C296.256 75.024 293.696 74.32 290.304 74.32H275.808V90.64ZM344.482 130V71.92L348.034 75.472H323.074V62.8H381.346V75.472H356.386L359.842 71.92V130H344.482Z" fill="white" fill-opacity="0.03"/>
<path d="M4.352 56V-11.2H35.648C43.456 -11.2 49.536 -9.696 53.888 -6.68801C58.24 -3.68 60.416 0.607998 60.416 6.17599C60.416 11.68 58.368 15.968 54.272 19.04C50.176 22.048 44.736 23.552 37.952 23.552L39.776 19.52C47.328 19.52 53.184 21.024 57.344 24.032C61.504 27.04 63.584 31.392 63.584 37.088C63.584 42.976 61.344 47.616 56.864 51.008C52.448 54.336 45.984 56 37.472 56H4.352ZM19.808 44.48H36.896C40.48 44.48 43.2 43.776 45.056 42.368C46.912 40.96 47.84 38.784 47.84 35.84C47.84 33.024 46.912 30.944 45.056 29.6C43.2 28.192 40.48 27.488 36.896 27.488H19.808V44.48ZM19.808 16.64H34.304C37.696 16.64 40.256 15.968 41.984 14.624C43.712 13.216 44.576 11.168 44.576 8.48C44.576 5.792 43.712 3.776 41.984 2.432C40.256 1.024 37.696 0.319996 34.304 0.319996H19.808V16.64ZM88.4818 56V-2.08L92.0338 1.472H67.0738V-11.2H125.346V1.472H100.386L103.842 -2.08V56H88.4818Z" fill="white" fill-opacity="0.03"/>
<path d="M134.352 56V-11.2H165.648C173.456 -11.2 179.536 -9.696 183.888 -6.68801C188.24 -3.68 190.416 0.607998 190.416 6.17599C190.416 11.68 188.368 15.968 184.272 19.04C180.176 22.048 174.736 23.552 167.952 23.552L169.776 19.52C177.328 19.52 183.184 21.024 187.344 24.032C191.504 27.04 193.584 31.392 193.584 37.088C193.584 42.976 191.344 47.616 186.864 51.008C182.448 54.336 175.984 56 167.472 56H134.352ZM149.808 44.48H166.896C170.48 44.48 173.2 43.776 175.056 42.368C176.912 40.96 177.84 38.784 177.84 35.84C177.84 33.024 176.912 30.944 175.056 29.6C173.2 28.192 170.48 27.488 166.896 27.488H149.808V44.48ZM149.808 16.64H164.304C167.696 16.64 170.256 15.968 171.984 14.624C173.712 13.216 174.576 11.168 174.576 8.48C174.576 5.792 173.712 3.776 171.984 2.432C170.256 1.024 167.696 0.319996 164.304 0.319996H149.808V16.64ZM218.482 56V-2.08L222.034 1.472H197.074V-11.2H255.346V1.472H230.386L233.842 -2.08V56H218.482Z" fill="white" fill-opacity="0.03"/>
<path d="M261.352 56V-11.2H292.648C300.456 -11.2 306.536 -9.696 310.888 -6.68801C315.24 -3.68 317.416 0.607998 317.416 6.17599C317.416 11.68 315.368 15.968 311.272 19.04C307.176 22.048 301.736 23.552 294.952 23.552L296.776 19.52C304.328 19.52 310.184 21.024 314.344 24.032C318.504 27.04 320.584 31.392 320.584 37.088C320.584 42.976 318.344 47.616 313.864 51.008C309.448 54.336 302.984 56 294.472 56H261.352ZM276.808 44.48H293.896C297.48 44.48 300.2 43.776 302.056 42.368C303.912 40.96 304.84 38.784 304.84 35.84C304.84 33.024 303.912 30.944 302.056 29.6C300.2 28.192 297.48 27.488 293.896 27.488H276.808V44.48ZM276.808 16.64H291.304C294.696 16.64 297.256 15.968 298.984 14.624C300.712 13.216 301.576 11.168 301.576 8.48C301.576 5.792 300.712 3.776 298.984 2.432C297.256 1.024 294.696 0.319996 291.304 0.319996H276.808V16.64ZM345.482 56V-2.08L349.034 1.472H324.074V-11.2H382.346V1.472H357.386L360.842 -2.08V56H345.482Z" fill="white" fill-opacity="0.03"/>
</g>
<defs>
<linearGradient id="paint0_linear_2010_1017" x1="0" y1="97" x2="376" y2="97" gradientUnits="userSpaceOnUse">
<stop stop-color="#5230C5"/>
<stop offset="1" stop-color="#640F8E"/>
</linearGradient>
<clipPath id="clip0_2010_1017">
<rect width="376" height="194" rx="30" fill="white"/>
</clipPath>
</defs>
</svg>
