<svg width="149" height="144" viewBox="0 0 149 144" fill="none" xmlns="http://www.w3.org/2000/svg">
<path d="M68.0048 22.4624C71.3831 17.9503 75.8909 14.4174 81.0731 12.2204C89.5341 9.21121 98.8502 9.69028 106.986 13.5529C115.122 17.4156 121.416 24.3478 124.493 32.8351C133.081 54.0067 120.294 86.1205 108.062 109.339C105.334 114.529 100.865 118.58 95.4437 120.78C90.0219 122.979 83.994 123.185 78.4207 121.362C53.4708 113.226 21.9254 99.0945 13.3376 77.9229C9.63275 69.6902 9.31898 60.3322 12.4648 51.8934C15.6107 43.4547 21.9605 36.6211 30.127 32.8856C35.3753 30.8517 41.0705 30.246 46.6374 31.1297C52.2044 32.0133 57.4459 34.3551 61.8327 37.9184C62.4975 32.306 64.6266 26.9745 68.0048 22.4624Z" fill="#F1F1F3"/>
</svg>
