<svg width="34" height="34" viewBox="0 0 34 34" fill="none" xmlns="http://www.w3.org/2000/svg">
<circle cx="17" cy="17" r="17" fill="#272727"/>
<path d="M16.541 10C17.1709 10 17.775 10.2502 18.2204 10.6956C18.6658 11.141 18.916 11.7451 18.916 12.375V17.125C18.916 17.7549 18.6658 18.359 18.2204 18.8044C17.775 19.2498 17.1709 19.5 16.541 19.5C15.9111 19.5 15.307 19.2498 14.8616 18.8044C14.4162 18.359 14.166 17.7549 14.166 17.125V12.375C14.166 11.7451 14.4162 11.141 14.8616 10.6956C15.307 10.2502 15.9111 10 16.541 10ZM22.0827 17.125C22.0827 19.9196 20.0164 22.2233 17.3327 22.6112V25.0417H15.7493V22.6112C13.0656 22.2233 10.9993 19.9196 10.9993 17.125H12.5827C12.5827 18.1748 12.9997 19.1816 13.742 19.924C14.4844 20.6663 15.4912 21.0833 16.541 21.0833C17.5908 21.0833 18.5976 20.6663 19.34 19.924C20.0823 19.1816 20.4993 18.1748 20.4993 17.125H22.0827Z" fill="white"/>
</svg>
