<svg width="43" height="41" viewBox="0 0 43 41" fill="none" xmlns="http://www.w3.org/2000/svg">
<path d="M18.3737 2.05832C19.2811 -0.686051 23.1631 -0.686046 24.0704 2.05832L27.0525 11.0779C27.4587 12.3064 28.6068 13.1361 29.9008 13.1361H39.4384C42.3572 13.1361 43.5571 16.8816 41.1817 18.5776L33.5559 24.0226C32.4861 24.7864 32.0382 26.1578 32.4508 27.4058L35.3847 36.2798C36.2955 39.0346 33.1544 41.349 30.7931 39.663L22.9654 34.0739C21.9224 33.3292 20.5217 33.3292 19.4788 34.0739L11.6511 39.663C9.28976 41.349 6.14863 39.0345 7.05942 36.2798L9.99332 27.4058C10.406 26.1578 9.95803 24.7864 8.88824 24.0226L1.26243 18.5776C-1.11299 16.8816 0.0869212 13.1361 3.00571 13.1361H12.5433C13.8373 13.1361 14.9855 12.3064 15.3917 11.0779L18.3737 2.05832Z" fill="#FFD382"/>
</svg>
