<svg width="16" height="19" viewBox="0 0 16 19" fill="none" xmlns="http://www.w3.org/2000/svg">
<path d="M15.3957 12.5903C15.7827 13.0274 16 13.6194 16 14.2367C16 14.8539 15.7827 15.446 15.3957 15.883L14.7867 16.6727C9.31707 22.5677 -3.99012 7.5843 1.16435 1.405L1.93227 0.652894C2.32067 0.229116 2.84158 -0.00539509 3.38232 9.42405e-05C3.92306 0.00558357 4.44013 0.250632 4.82168 0.682226C4.84238 0.704789 6.07908 2.51586 6.07908 2.51586C6.44496 2.95098 6.64854 3.52772 6.6478 4.12702C6.64705 4.72631 6.44204 5.30241 6.07508 5.73638L5.30181 6.83144C5.72984 8.00249 6.35905 9.06676 7.1533 9.96315C7.94756 10.8595 8.89121 11.5704 9.93007 12.0548L10.9083 11.1786C11.2929 10.7642 11.8044 10.5325 12.3366 10.5317C12.8688 10.5308 13.3808 10.7609 13.7664 11.1741C13.7664 11.1741 15.375 12.5677 15.3957 12.5903ZM14.4775 13.6839C14.4775 13.6839 12.8796 12.2985 12.8589 12.2759C12.7213 12.1223 12.5354 12.0361 12.3417 12.0361C12.148 12.0361 11.9621 12.1223 11.8245 12.2759C11.8065 12.2955 10.4596 13.5049 10.4596 13.5049C10.3688 13.5862 10.2608 13.6396 10.1462 13.6596C10.0316 13.6797 9.91427 13.6657 9.80587 13.6192C8.45927 13.0549 7.23613 12.1711 6.21937 11.0278C5.20261 9.8844 4.416 8.50817 3.91286 6.99239C3.86825 6.86864 3.85371 6.73373 3.87072 6.60155C3.88774 6.46937 3.93571 6.34467 4.00968 6.24029C4.00968 6.24029 5.08345 4.72554 5.10148 4.70599C5.23788 4.55105 5.31441 4.34168 5.31441 4.12348C5.31441 3.90529 5.23788 3.69592 5.10148 3.54098C5.08144 3.51842 3.85142 1.71712 3.85142 1.71712C3.7118 1.57611 3.52957 1.50059 3.34209 1.50604C3.15461 1.5115 2.97608 1.59751 2.8431 1.74646L2.07517 2.49856C-1.69235 7.60009 9.84126 19.8699 13.8098 15.6476L14.4188 14.8572C14.5624 14.7088 14.6488 14.5031 14.6598 14.284C14.6708 14.0648 14.6054 13.8495 14.4775 13.6839Z" fill="#E2709C"/>
</svg>
