<svg width="93" height="21" viewBox="0 0 93 21" fill="none" xmlns="http://www.w3.org/2000/svg">
<rect width="93" height="21" rx="10" fill="white"/>
<path d="M17.5 8C16.837 8 16.2011 8.26339 15.7322 8.73223C15.2634 9.20107 15 9.83696 15 10.5C15 11.163 15.2634 11.7989 15.7322 12.2678C16.2011 12.7366 16.837 13 17.5 13C18.8875 13 20 11.8875 20 10.5C20 9.83696 19.7366 9.20107 19.2678 8.73223C18.7989 8.26339 18.163 8 17.5 8Z" fill="#FC45C8"/>
<path d="M31.276 15.072C30.676 15.072 30.104 14.976 29.56 14.784C29.016 14.584 28.584 14.32 28.264 13.992L28.684 13.308C28.948 13.588 29.308 13.82 29.764 14.004C30.228 14.188 30.728 14.28 31.264 14.28C31.976 14.28 32.516 14.124 32.884 13.812C33.26 13.492 33.448 13.076 33.448 12.564C33.448 12.204 33.36 11.896 33.184 11.64C33.016 11.376 32.728 11.172 32.32 11.028C31.912 10.884 31.352 10.812 30.64 10.812H28.852L29.284 6.6H33.88V7.368H29.632L30.076 6.948L29.704 10.476L29.26 10.044H30.832C31.68 10.044 32.36 10.148 32.872 10.356C33.384 10.564 33.752 10.856 33.976 11.232C34.208 11.6 34.324 12.032 34.324 12.528C34.324 13 34.212 13.432 33.988 13.824C33.764 14.208 33.428 14.512 32.98 14.736C32.532 14.96 31.964 15.072 31.276 15.072ZM38.6369 6.528C39.3809 6.528 40.0089 6.696 40.5209 7.032C41.0329 7.36 41.4209 7.836 41.6849 8.46C41.9489 9.084 42.0809 9.84 42.0809 10.728C42.0809 11.672 41.9169 12.468 41.5889 13.116C41.2689 13.764 40.8209 14.252 40.2449 14.58C39.6689 14.908 39.0009 15.072 38.2409 15.072C37.8649 15.072 37.5049 15.036 37.1609 14.964C36.8249 14.892 36.5209 14.776 36.2489 14.616L36.5969 13.92C36.8129 14.064 37.0609 14.168 37.3409 14.232C37.6289 14.288 37.9249 14.316 38.2289 14.316C39.1329 14.316 39.8529 14.028 40.3889 13.452C40.9329 12.876 41.2049 12.016 41.2049 10.872C41.2049 10.688 41.1929 10.468 41.1689 10.212C41.1529 9.956 41.1089 9.7 41.0369 9.444L41.3369 9.672C41.2569 10.088 41.0849 10.444 40.8209 10.74C40.5649 11.028 40.2449 11.248 39.8609 11.4C39.4849 11.552 39.0649 11.628 38.6009 11.628C38.0489 11.628 37.5569 11.524 37.1249 11.316C36.7009 11.108 36.3689 10.816 36.1289 10.44C35.8889 10.064 35.7689 9.62 35.7689 9.108C35.7689 8.58 35.8929 8.124 36.1409 7.74C36.3889 7.356 36.7289 7.06 37.1609 6.852C37.6009 6.636 38.0929 6.528 38.6369 6.528ZM38.6729 7.26C38.2729 7.26 37.9169 7.336 37.6049 7.488C37.3009 7.632 37.0609 7.84 36.8849 8.112C36.7089 8.384 36.6209 8.708 36.6209 9.084C36.6209 9.636 36.8089 10.076 37.1849 10.404C37.5689 10.732 38.0849 10.896 38.7329 10.896C39.1649 10.896 39.5409 10.816 39.8609 10.656C40.1889 10.496 40.4409 10.276 40.6169 9.996C40.8009 9.716 40.8929 9.404 40.8929 9.06C40.8929 8.748 40.8089 8.456 40.6409 8.184C40.4729 7.912 40.2249 7.692 39.8969 7.524C39.5689 7.348 39.1609 7.26 38.6729 7.26ZM44.4525 15.06C44.2765 15.06 44.1245 14.996 43.9965 14.868C43.8765 14.74 43.8165 14.584 43.8165 14.4C43.8165 14.208 43.8765 14.052 43.9965 13.932C44.1245 13.812 44.2765 13.752 44.4525 13.752C44.6285 13.752 44.7765 13.812 44.8965 13.932C45.0245 14.052 45.0885 14.208 45.0885 14.4C45.0885 14.584 45.0245 14.74 44.8965 14.868C44.7765 14.996 44.6285 15.06 44.4525 15.06ZM49.5634 6.528C50.3074 6.528 50.9354 6.696 51.4474 7.032C51.9594 7.36 52.3474 7.836 52.6114 8.46C52.8754 9.084 53.0074 9.84 53.0074 10.728C53.0074 11.672 52.8434 12.468 52.5154 13.116C52.1954 13.764 51.7474 14.252 51.1714 14.58C50.5954 14.908 49.9274 15.072 49.1674 15.072C48.7914 15.072 48.4314 15.036 48.0874 14.964C47.7514 14.892 47.4474 14.776 47.1754 14.616L47.5234 13.92C47.7394 14.064 47.9874 14.168 48.2674 14.232C48.5554 14.288 48.8514 14.316 49.1554 14.316C50.0594 14.316 50.7794 14.028 51.3154 13.452C51.8594 12.876 52.1314 12.016 52.1314 10.872C52.1314 10.688 52.1194 10.468 52.0954 10.212C52.0794 9.956 52.0354 9.7 51.9634 9.444L52.2634 9.672C52.1834 10.088 52.0114 10.444 51.7474 10.74C51.4914 11.028 51.1714 11.248 50.7874 11.4C50.4114 11.552 49.9914 11.628 49.5274 11.628C48.9754 11.628 48.4834 11.524 48.0514 11.316C47.6274 11.108 47.2954 10.816 47.0554 10.44C46.8154 10.064 46.6954 9.62 46.6954 9.108C46.6954 8.58 46.8194 8.124 47.0674 7.74C47.3154 7.356 47.6554 7.06 48.0874 6.852C48.5274 6.636 49.0194 6.528 49.5634 6.528ZM49.5994 7.26C49.1994 7.26 48.8434 7.336 48.5314 7.488C48.2274 7.632 47.9874 7.84 47.8114 8.112C47.6354 8.384 47.5474 8.708 47.5474 9.084C47.5474 9.636 47.7354 10.076 48.1114 10.404C48.4954 10.732 49.0114 10.896 49.6594 10.896C50.0914 10.896 50.4674 10.816 50.7874 10.656C51.1154 10.496 51.3674 10.276 51.5434 9.996C51.7274 9.716 51.8194 9.404 51.8194 9.06C51.8194 8.748 51.7354 8.456 51.5674 8.184C51.3994 7.912 51.1514 7.692 50.8234 7.524C50.4954 7.348 50.0874 7.26 49.5994 7.26ZM60.1366 10.668H64.5766V11.436H60.1366V10.668ZM60.2326 15H59.3446V6.6H65.1046V7.368H60.2326V15ZM67.5383 15V6.6H68.2703L72.1103 13.152H71.7263L75.5303 6.6H76.2623V15H75.4103V7.932H75.6143L72.1103 13.932H71.6903L68.1623 7.932H68.3903V15H67.5383Z" fill="#414141"/>
</svg>
