<svg width="34" height="34" viewBox="0 0 34 34" fill="none" xmlns="http://www.w3.org/2000/svg">
<path d="M17 0C7.61175 0 0 7.61175 0 17C0 26.3882 7.61175 34 17 34C26.3882 34 34 26.3882 34 17C34 7.61175 26.3882 0 17 0ZM26.0114 22.6199L23.3651 22.6567C23.3651 22.6567 22.7942 22.7687 22.0476 22.253C21.0573 21.573 20.1237 19.8036 19.3956 20.0331C18.6575 20.2683 18.6802 21.8606 18.6802 21.8606C18.6802 21.8606 18.6858 22.1411 18.5172 22.3238C18.3345 22.5207 17.9761 22.5009 17.9761 22.5009H16.7903C16.7903 22.5009 14.1752 22.7177 11.8702 20.315C9.35992 17.6956 7.14142 12.5262 7.14142 12.5262C7.14142 12.5262 7.01108 12.2003 7.14992 12.0332C7.30717 11.849 7.73075 11.8433 7.73075 11.8433L10.5641 11.8292C10.5641 11.8292 10.8304 11.8759 11.0231 12.0176C11.1803 12.1337 11.2696 12.3519 11.2696 12.3519C11.2696 12.3519 11.7272 13.5122 12.3349 14.5633C13.5192 16.6118 14.0689 17.0609 14.4712 16.8413C15.0577 16.5212 14.8821 13.9457 14.8821 13.9457C14.8821 13.9457 14.8934 13.0107 14.5874 12.5942C14.3494 12.2698 13.9017 12.1734 13.7063 12.1493C13.5462 12.1281 13.8068 11.7569 14.1468 11.5897C14.6568 11.3404 15.5578 11.3262 16.6217 11.3362C17.4505 11.3447 17.6899 11.3957 18.0129 11.475C18.9904 11.7116 18.6589 12.6239 18.6589 14.8127C18.6589 15.5139 18.5328 16.4999 19.0372 16.8243C19.2553 16.9646 19.7866 16.8456 21.1112 14.5874C21.7416 13.5164 22.2133 12.2584 22.2133 12.2584C22.2133 12.2584 22.3167 12.0346 22.4768 11.9382C22.6412 11.8391 22.8622 11.8702 22.8622 11.8702L25.8442 11.8518C25.8442 11.8518 26.7396 11.7442 26.8855 12.1507C27.0385 12.5757 26.5512 13.5688 25.3328 15.1938C23.3325 17.8627 23.1101 17.6148 24.7718 19.159C26.3585 20.6337 26.6857 21.3506 26.741 21.4412C27.3969 22.5335 26.0114 22.6199 26.0114 22.6199Z" fill="#414141"/>
</svg>
